<svg width="57" height="50" viewBox="0 0 57 50" fill="none" xmlns="http://www.w3.org/2000/svg">
<g filter="url(#filter0_d)">
<path d="M27.5096 1.24658C28.0215 1.1085 28.5607 1.1085 29.0725 1.24658L41.7261 4.6604C42.2984 4.8148 42.8121 5.13525 43.2024 5.58133L50.6021 14.0381C51.0806 14.5849 51.3443 15.2869 51.3443 16.0136V25.9864C51.3443 26.7131 51.0806 27.4151 50.6021 27.9619L43.2024 36.4187C42.8121 36.8647 42.2984 37.1852 41.7261 37.3396L29.0725 40.7534C28.5607 40.8915 28.0215 40.8915 27.5096 40.7534L14.8561 37.3396C14.2838 37.1852 13.7701 36.8647 13.3798 36.4187L5.9801 27.9619C5.50159 27.4151 5.23783 26.7131 5.23783 25.9864V16.0136C5.23783 15.2869 5.50159 14.5849 5.98011 14.0381L13.3798 5.58133C13.7701 5.13525 14.2838 4.8148 14.8561 4.6604L27.5096 1.24658Z" stroke="#FF6F1E" stroke-width="2"/>
</g>
<g filter="url(#filter1_d)">
<path d="M13.9381 31.55C13.4042 31.3547 13.0722 31.2115 12.942 31.1203C12.8118 31.0161 12.6946 30.8859 12.5904 30.7297C12.0045 29.8443 11.5813 27.2141 11.3209 22.8391C11.2558 21.8625 11.2232 20.9055 11.2232 19.968C11.2232 19.0305 11.2428 18.1646 11.2818 17.3703C11.3209 16.563 11.373 15.8013 11.4381 15.0851C11.5813 13.4706 11.7115 12.5005 11.8287 12.175L12.0631 11.4328C12.2714 10.8078 12.7467 10.3456 13.4889 10.0461C13.8144 9.91588 14.2376 9.76614 14.7584 9.59687L16.4771 9.01093C17.1152 8.81562 17.7792 8.62031 18.4693 8.42499L20.4615 7.83906C21.8027 7.46145 22.9355 7.17499 23.86 6.97968L24.9146 11.7258C24.5891 11.8039 24.192 11.8885 23.7232 11.9797L18.9576 12.8781L17.61 13.1516C17.2193 13.2427 16.9264 13.3143 16.731 13.3664C16.3665 14.8247 16.1842 16.9406 16.1842 19.7141C16.1842 23.3338 16.4055 26.0031 16.8482 27.7219C17.3951 27.8521 17.9876 27.9823 18.6256 28.1125L22.649 28.9328L24.5435 29.2844L23.4498 33.7961C22.2779 33.5878 21.2102 33.3664 20.2467 33.132C16.5878 32.2596 14.485 31.7323 13.9381 31.55Z" fill="#FF6F1E"/>
</g>
<g filter="url(#filter2_d)">
<path d="M33.2355 28.718L33.6457 28.6789C34.0754 28.6138 34.5116 28.5552 34.9543 28.5031C35.41 28.438 35.8788 28.3599 36.3605 28.2687C37.5194 28.0734 38.4374 27.8651 39.1144 27.6437C39.9738 24.0891 40.4035 20.3651 40.4035 16.4719C40.4035 15.0135 40.3319 13.7505 40.1887 12.6828C36.647 12.0187 32.1548 11.6867 26.7121 11.6867H26.1848L27.0637 6.96015H27.4738C32.4217 6.96015 36.7251 7.35729 40.384 8.15156C41.0871 8.29479 41.6079 8.4315 41.9465 8.56171C42.298 8.69192 42.6431 8.91327 42.9816 9.22577C43.3202 9.53827 43.6522 9.88333 43.9777 10.2609C44.7329 11.1854 45.1366 11.8885 45.1887 12.3703C45.2928 13.3338 45.3449 14.4146 45.3449 15.6125C45.3449 16.8104 45.2928 18.0734 45.1887 19.4016C45.0845 20.7297 44.9282 22.0383 44.7199 23.3273C44.2902 26.1268 43.7108 28.4185 42.9816 30.2023C42.8254 30.606 42.6496 30.899 42.4543 31.0812C42.272 31.2505 41.8944 31.4328 41.3215 31.6281C40.7486 31.8104 40.0389 31.9862 39.1926 32.1555C38.3592 32.3247 37.4282 32.468 36.3996 32.5851C34.4855 32.8065 31.9335 32.9953 28.7433 33.1516V14.4406L33.548 13.4055L33.6262 17.6047L33.2355 28.718Z" fill="#FF6F1E"/>
</g>
<defs>
<filter id="filter0_d" x="0.237823" y="0.143018" width="56.1065" height="49.714" filterUnits="userSpaceOnUse" color-interpolation-filters="sRGB">
<feFlood flood-opacity="0" result="BackgroundImageFix"/>
<feColorMatrix in="SourceAlpha" type="matrix" values="0 0 0 0 0 0 0 0 0 0 0 0 0 0 0 0 0 0 127 0" result="hardAlpha"/>
<feOffset dy="4"/>
<feGaussianBlur stdDeviation="2"/>
<feColorMatrix type="matrix" values="0 0 0 0 0 0 0 0 0 0 0 0 0 0 0 0 0 0 0.5 0"/>
<feBlend mode="normal" in2="BackgroundImageFix" result="effect1_dropShadow"/>
<feBlend mode="normal" in="SourceGraphic" in2="effect1_dropShadow" result="shape"/>
</filter>
<filter id="filter1_d" x="7.22324" y="6.97968" width="21.6914" height="34.8164" filterUnits="userSpaceOnUse" color-interpolation-filters="sRGB">
<feFlood flood-opacity="0" result="BackgroundImageFix"/>
<feColorMatrix in="SourceAlpha" type="matrix" values="0 0 0 0 0 0 0 0 0 0 0 0 0 0 0 0 0 0 127 0" result="hardAlpha"/>
<feOffset dy="4"/>
<feGaussianBlur stdDeviation="2"/>
<feColorMatrix type="matrix" values="0 0 0 0 0 0 0 0 0 0 0 0 0 0 0 0 0 0 0.5 0"/>
<feBlend mode="normal" in2="BackgroundImageFix" result="effect1_dropShadow"/>
<feBlend mode="normal" in="SourceGraphic" in2="effect1_dropShadow" result="shape"/>
</filter>
<filter id="filter2_d" x="22.1848" y="6.96015" width="27.1602" height="34.1914" filterUnits="userSpaceOnUse" color-interpolation-filters="sRGB">
<feFlood flood-opacity="0" result="BackgroundImageFix"/>
<feColorMatrix in="SourceAlpha" type="matrix" values="0 0 0 0 0 0 0 0 0 0 0 0 0 0 0 0 0 0 127 0" result="hardAlpha"/>
<feOffset dy="4"/>
<feGaussianBlur stdDeviation="2"/>
<feColorMatrix type="matrix" values="0 0 0 0 0 0 0 0 0 0 0 0 0 0 0 0 0 0 0.5 0"/>
<feBlend mode="normal" in2="BackgroundImageFix" result="effect1_dropShadow"/>
<feBlend mode="normal" in="SourceGraphic" in2="effect1_dropShadow" result="shape"/>
</filter>
</defs>
</svg>
